<svg width="29" height="27" viewBox="0 0 29 27" fill="none" xmlns="http://www.w3.org/2000/svg">
<path d="M26.3388 13.155C26.3275 12.6925 26.133 12.2533 25.798 11.9342C25.463 11.6151 25.0149 11.4421 24.5524 11.4534L14.2641 11.7033C14.119 11.7076 13.9751 11.6755 13.8456 11.6097C13.7161 11.544 13.6052 11.4469 13.523 11.3272C13.4409 11.2074 13.39 11.069 13.3753 10.9246C13.3605 10.7801 13.3822 10.6343 13.4384 10.5004L14.5355 7.87783C14.9591 6.8662 15.024 5.74017 14.7196 4.68655C14.4152 3.63292 13.7598 2.71503 12.862 2.08515C9.5445 10.0533 6.28532 13.1221 3.49422 14.5127C2.44384 15.0359 1.85927 16.028 2.02645 16.9621L2.90663 21.875C2.97358 22.2471 3.14897 22.5912 3.4108 22.864C3.67263 23.1368 4.00922 23.3262 4.37831 23.4084L11.0842 24.9026C13.7784 25.503 16.4094 23.6689 16.7771 20.9342L17.4606 15.8542C17.4883 15.6483 17.5882 15.4589 17.7426 15.3198C17.897 15.1808 18.0959 15.1012 18.3036 15.0952L24.6385 14.9414C24.8675 14.9358 25.0932 14.8852 25.3027 14.7924C25.5122 14.6996 25.7013 14.5665 25.8593 14.4006C26.0173 14.2347 26.1411 14.0393 26.2236 13.8256C26.3061 13.6119 26.3457 13.384 26.3402 13.155M24.5114 9.70931C25.4365 9.68684 26.3326 10.0328 27.0026 10.671C27.6727 11.3093 28.0617 12.1875 28.0842 13.1126C28.1067 14.038 27.7608 14.9344 27.1227 15.6048C26.4845 16.2753 25.6063 16.6649 24.6809 16.6882L19.0917 16.8239L18.5076 21.1665C18.0032 24.9146 14.3983 27.4271 10.706 26.6051L4.00014 25.1102C3.29563 24.9532 2.6532 24.5916 2.1535 24.0707C1.6538 23.5499 1.31909 22.893 1.1914 22.1826L0.3112 17.269C-0.031016 15.3647 1.18536 13.7158 2.71782 12.9526C5.01992 11.805 8.09062 9.10864 11.3557 1.16615C11.703 0.321491 12.7396 -0.0519992 13.5475 0.448399C14.874 1.26864 15.8645 2.53518 16.3409 4.02034C16.8172 5.5055 16.7482 7.11187 16.1461 8.55068L15.5681 9.92656L24.5114 9.70931Z" fill="url(#paint0_linear_13_51)"/>
<defs>
<linearGradient id="paint0_linear_13_51" x1="24.4423" y1="0.862329" x2="23.9617" y2="26.7249" gradientUnits="userSpaceOnUse">
<stop stop-color="#FF4242"/>
<stop offset="1" stop-color="#99286C"/>
</linearGradient>
</defs>
</svg>
