<svg width="79" height="68" viewBox="0 0 79 68" fill="none" xmlns="http://www.w3.org/2000/svg">
<path d="M70.895 0.83667L70.8906 64.6451C72.033 66.5249 73.2149 67.2477 74.206 67.2429C75.1895 67.2383 76.3587 66.5068 77.4788 64.6833L74.4198 32.0924L74.3841 31.6955L74.629 31.3791C78.1442 26.8686 79.3726 19.076 78.3698 12.4848C77.8684 9.18908 76.8189 6.20611 75.3492 4.09738C74.1167 2.32898 72.6464 1.20091 70.8953 0.83667H70.895ZM9.07486 0.837334L9.0722 11.9815L6.98705 11.9788V0.837998H4.61219L4.61252 11.9793H2.52438V0.837998H0.10553V17.9755C0.105364 19.8709 1.13981 20.9219 2.76842 21.5717L3.44245 21.841L3.4275 22.5664C3.09547 36.6064 2.76726 50.6462 2.43772 64.6859C3.57327 66.544 4.73969 67.2476 5.71088 67.2429C6.68208 67.2383 7.84751 66.5163 8.96861 64.681C8.58412 50.6448 8.20001 36.6085 7.8163 22.5721L7.79637 21.8416L8.47256 21.575C10.1865 20.8933 11.3013 19.7365 11.3013 17.9765V0.837334H9.07486ZM39.4204 7.31128C32.3315 7.31128 25.533 10.1273 20.5204 15.1399C15.5079 20.1524 12.6918 26.9509 12.6918 34.0398C12.6918 41.1286 15.5079 47.9271 20.5204 52.9397C25.533 57.9523 32.3315 60.7683 39.4204 60.7683C46.5092 60.7683 53.3077 57.9523 58.3203 52.9397C63.3329 47.9271 66.1489 41.1286 66.1489 34.0398C66.1489 26.9509 63.3329 20.1524 58.3203 15.1399C53.3077 10.1273 46.5092 7.31128 39.4204 7.31128Z" fill="url(#paint0_linear_11_28)"/>
<defs>
<linearGradient id="paint0_linear_11_28" x1="2.84223" y1="8.79159" x2="79.3688" y2="12.8808" gradientUnits="userSpaceOnUse">
<stop stop-color="#FF4242"/>
<stop offset="1" stop-color="#99286C"/>
</linearGradient>
</defs>
</svg>
